:SAMPLES-PER-SECOND 30
:FULLY-SPECIFIED
:DEGREES
78
root  28.0285 40.6621 -7.90405 -99.4313 -88.4729 103.576
RightUpLeg  9.29817 -10.6666 -6.45761
RightLeg  23.5236 2.10469 0.691261
RightFoot  7.15752 -1.20247 7.66408
RightToes  4.07452e-010 0 -3.6325e-017
Spine  5.0691 6.13905 13.4024
Spine1  7.88647 10.1403 -13.5211
HEad  -9.02898 -6.44669 -1.02535
LeftShoulder1  8.68524 -12.8829 -46.2305
LeftArm  -0.0574753 48.3866 -20.3519
LeftForeArm  176.765 -57.3703 -164.996
LeftHand  -0.244104 0.0205437 5.32207
RightShoulder  6.90043 10.8949 41.6796
RightArm  14.8498 -10.9395 33.987
RightForeArm  166.766 59.0226 163.153
RightHand  -0.0463966 -8.84755 -0.0121508
LeftUpLeg  -24.8332 9.69266 -7.09992
LeftLeg  16.8022 -0.0616501 -0.32879
LeftFoot  -10.8919 0.0976548 -6.85476
LeftToes  1.0186e-010 1.09309e-010 2.97394e-011
79
root  25.7007 40.3768 -7.85127 -104.727 -89.1618 107.799
RightUpLeg  8.0349 -5.48909 -4.93498
RightLeg  32.7076 -1.1669 -1.05468
RightFoot  7.91784 -1.27353 7.82281
RightToes  4.07452e-010 0 -3.6325e-017
Spine  5.34243 6.22456 12.6584
Spine1  8.71675 9.99215 -12.2287
HEad  -7.42634 -6.27131 -0.459592
LeftShoulder1  8.39604 -12.7328 -45.0561
LeftArm  -4.29635 48.51 -25.0017
LeftForeArm  177.666 -57.101 -165.217
LeftHand  -0.244104 0.0205437 5.32207
RightShoulder  7.03919 11.1974 41.641
RightArm  17.8077 -11.9221 31.9844
RightForeArm  167.843 60.2568 162.454
RightHand  -0.0815329 -8.41073 1.16073
LeftUpLeg  -21.6626 6.61302 -5.31913
LeftLeg  11.3649 5.07204 -1.57088
LeftFoot  -9.543 0.126732 -5.3385
LeftToes  1.0186e-010 1.09309e-010 2.97394e-011
80
root  23.3658 39.7885 -7.78806 -120.929 -88.7622 122.651
RightUpLeg  5.97773 -1.45154 -5.25393
RightLeg  43.546 -2.69514 -3.0268
RightFoot  6.93551 -1.30231 8.38321
RightToes  4.07452e-010 0 -3.6325e-017
Spine  5.77245 5.91282 10.3183
Spine1  9.53232 9.27515 -10.3841
HEad  -6.91166 -5.36544 0.154921
LeftShoulder1  7.79909 -12.0568 -43.6101
LeftArm  -7.4086 46.9083 -29.241
LeftForeArm  179.648 -56.8177 -165.537
LeftHand  -0.244104 0.0205437 5.32207
RightShoulder  6.99257 11.1801 41.3962
RightArm  19.4993 -12.5588 30.8869
RightForeArm  166.436 62.629 160.63
RightHand  -0.186196 -9.39908 3.7326
LeftUpLeg  -19.5065 7.46577 -6.13339
LeftLeg  11.8464 8.06047 -1.55064
LeftFoot  -5.95674 -0.00861942 0.680347
LeftToes  1.0186e-010 1.09309e-010 2.97394e-011
81
root  21.0846 39.154 -7.74414 -113.264 -87.3643 113.827
RightUpLeg  2.34648 1.59442 -7.10411
RightLeg  54.158 -3.1614 -5.102
RightFoot  5.60449 -0.984699 6.83225
RightToes  4.07452e-010 0 -3.6325e-017
Spine  6.23779 5.11992 6.375
Spine1  10.1945 7.88728 -8.11792
HEad  -7.71381 -3.7873 0.456387
LeftShoulder1  7.39118 -11.1723 -43.8358
LeftArm  -8.59404 42.5435 -29.7278
LeftForeArm  -179.406 -57.6281 -165.171
LeftHand  -0.244104 0.0205437 5.32207
RightShoulder  6.98903 11.0425 41.7953
RightArm  19.1299 -12.9121 31.0052
RightForeArm  162.658 67.7222 155.23
RightHand  -0.227817 -9.86176 4.15912
LeftUpLeg  -19.1685 14.1054 -10.0924
LeftLeg  17.9051 3.09103 0.235594
LeftFoot  -4.09059 -0.415215 7.2469
LeftToes  1.0186e-010 1.09309e-010 2.97394e-011
82
root  18.96 38.7468 -7.74375 -107.029 -85.5914 106.736
RightUpLeg  -3.15257 3.88525 -9.1992
RightLeg  62.6412 -3.37007 -7.61398
RightFoot  3.24646 -0.366867 2.99154
RightToes  4.07452e-010 0 -3.6325e-017
Spine  7.18265 4.04073 2.30039
Spine1  10.4324 6.29821 -6.56673
HEad  -8.53344 -1.95914 0.957776
LeftShoulder1  7.59107 -10.8814 -45.9948
LeftArm  -8.516 35.449 -26.4749
LeftForeArm  178.911 -61.2178 -162.748
LeftHand  -0.244104 0.0205437 5.32207
RightShoulder  7.28044 11.007 43.7625
RightArm  15.7036 -13.6126 32.1836
RightForeArm  146.868 76.1205 135.679
RightHand  -0.0502864 -8.82112 0.154706
LeftUpLeg  -18.2244 15.1704 -12.0631
LeftLeg  24.2573 2.17303 1.56701
LeftFoot  -6.78061 -0.359548 9.83673
LeftToes  1.0186e-010 1.09309e-010 2.97394e-011
